<svg xmlns="http://www.w3.org/2000/svg" viewBox="0 0 408 408"><defs><linearGradient id="linearGradient-6" x1="270" x2="270" y1="0" y2="540" gradientTransform="matrix(0.730128, 0, 0, 0.733904, 7.365322, 6.345413)" gradientUnits="userSpaceOnUse"><stop id="stop4025" offset="0" stop-color="#611AA5"/><stop id="stop4027" offset="1" stop-color="#4C42B5"/></linearGradient><linearGradient id="linearGradient-7" x1="278.951" x2="278.951" y1="-4.536" y2="120.588" gradientTransform="scale(0.60739776,1.6463676)" gradientUnits="userSpaceOnUse"><stop id="stop4030" offset="0" stop-color="#5B25AA"/><stop id="stop4032" offset="1" stop-color="#5630AE"/></linearGradient><linearGradient id="linearGradient-8" x1="280.597" x2="280.597" y1="-3.929" y2="116.412" gradientTransform="scale(0.60739776,1.6463676)" gradientUnits="userSpaceOnUse"><stop id="stop4035" offset="0" stop-color="#5C25AA"/><stop id="stop4037" offset="1" stop-color="#5530AE"/></linearGradient><linearGradient id="linearGradient-9" x1="153.099" x2="153.099" y1="4.519" y2="139.575" gradientTransform="scale(0.56273143,1.7770466)" gradientUnits="userSpaceOnUse"><stop id="stop4040" offset="0" stop-color="#5C24A9"/><stop id="stop4042" offset="1" stop-color="#5336B0"/></linearGradient></defs><ellipse id="circle4476" cx="204.5" cy="204.5" style="fill:url(#linearGradient-6);fill-rule:nonzero;stroke:none;stroke-width:.73201358" rx="197.135" ry="198.154"/><g id="m2-copy" transform="matrix(0.730128, 0, 0, 0.733904, 43.619019, 110.248718)" style="fill:none;fill-rule:evenodd;stroke:none;stroke-width:1"><g style="fill:#fff;fill-rule:nonzero" id="Group-2-Copy" transform="matrix(-1,0,0,1,440,0)"><rect style="stroke:#fff" id="Rectangle" width="75" height="239" x="47.962" y="9.316" rx="37.5" transform="rotate(25,85.461662,128.81643)"/><rect style="stroke:url(#linearGradient-7)" id="Rectangle-Copy-5" width="75" height="205" x="131.934" y="-6.968" rx="37.5" transform="matrix(-0.64278761,0.76604444,0.76604444,0.64278761,205.16271,-95.668941)"/></g><rect style="fill:#fff;fill-rule:nonzero;stroke:url(#linearGradient-8)" id="rect4054" width="75" height="205" x="132.934" y="-5.968" rx="37.5" transform="matrix(-0.65605903,0.75470958,0.75470958,0.65605903,209.39552,-95.427038)"/><rect style="fill:#fff;fill-rule:nonzero;stroke:url(#linearGradient-9)" id="rect4056" width="75" height="239" x="48.654" y="8.531" rx="37.5" transform="rotate(25,86.153887,128.03134)"/></g></svg>