<svg xmlns="http://www.w3.org/2000/svg" xmlns:svg="http://www.w3.org/2000/svg" id="svg4063" width="1024" height="1024" preserveAspectRatio="xMidYMid meet" version="1.1" viewBox="0 0 1024 1024"><metadata id="metadata4067"/><defs id="svgEditorDefs"><pattern id="svgEditorGrid0" width="10" height="10" x="0" y="0" patternUnits="userSpaceOnUse" viewBox="0 0 10 10"><defs id="defs3909"><marker id="svgEditorGridMkCircle" markerHeight="2" markerUnits="strokeWidth" markerWidth="2" orient="0deg" refX="1" refY="1" viewBox="0 0 2 2"><circle id="circle3903" style="fill:#000;stroke:none" cx="1" cy="1" r="1"/></marker><marker id="svgEditorGridMkSquare" markerHeight="2" markerUnits="strokeWidth" markerWidth="2" orient="0deg" refX="1" refY="1" viewBox="0 0 2 2"><rect id="rect3906" style="fill:#000;stroke:none" width="2" height="2" x="0" y="0"/></marker></defs><g id="g3939" stroke="none" marker-end="url(#svgEditorGridMkCircle)" marker-mid="url(#svgEditorGridMkCircle)" marker-start="url(#svgEditorGridMkCircle)"><path id="path3911" stroke-width=".4" d="M0,0M10,0M10,10M0,10"/><path id="path3913" stroke-width=".2" d="M5,0M0,5M5,5M10,5M5,10"/><g id="g3937" stroke-width=".125"><path id="path3915" d="M1,0M2,0M3,0M4,0M6,0M7,0M8,0M9,0"/><path id="path3917" d="M0,1M1,1M2,1M3,1M4,1M5,1M6,1M7,1M8,1M9,1M10,1"/><path id="path3919" d="M0,2M1,2M2,2M3,2M4,2M5,2M6,2M7,2M8,2M9,2M10,2"/><path id="path3921" d="M0,3M1,3M2,3M3,3M4,3M5,3M6,3M7,3M8,3M9,3M10,3"/><path id="path3923" d="M0,4M1,4M2,4M3,4M4,4M5,4M6,4M7,4M8,4M9,4M10,4"/><path id="path3925" d="M1,5M2,5M3,5M4,5M6,5M7,5M8,5M9,5"/><path id="path3927" d="M0,6M1,6M2,6M3,6M4,6M5,6M6,6M7,6M8,6M9,6M10,6"/><path id="path3929" d="M0,7M1,7M2,7M3,7M4,7M5,7M6,7M7,7M8,7M9,7M10,7"/><path id="path3931" d="M0,8M1,8M2,8M3,8M4,8M5,8M6,8M7,8M8,8M9,8M10,8"/><path id="path3933" d="M0,9M1,9M2,9M3,9M4,9M5,9M6,9M7,9M8,9M9,9M10,9"/><path id="path3935" d="M1,10M2,10M3,10M4,10M6,10M7,10M8,10M9,10"/></g></g></pattern><pattern id="svgEditorGrid1" width="20" height="20" x="0" y="0" patternUnits="userSpaceOnUse" viewBox="0 0 10 10"><g id="g3970" stroke="none" marker-end="url(#svgEditorGridMkSquare)" marker-mid="url(#svgEditorGridMkSquare)" marker-start="url(#svgEditorGridMkSquare)"><path id="path3942" stroke-width=".4" d="M0,0M10,0M10,10M0,10"/><path id="path3944" stroke-width=".2" d="M5,0M0,5M5,5M10,5M5,10"/><g id="g3968" stroke-width=".125"><path id="path3946" d="M1,0M2,0M3,0M4,0M6,0M7,0M8,0M9,0"/><path id="path3948" d="M0,1M1,1M2,1M3,1M4,1M5,1M6,1M7,1M8,1M9,1M10,1"/><path id="path3950" d="M0,2M1,2M2,2M3,2M4,2M5,2M6,2M7,2M8,2M9,2M10,2"/><path id="path3952" d="M0,3M1,3M2,3M3,3M4,3M5,3M6,3M7,3M8,3M9,3M10,3"/><path id="path3954" d="M0,4M1,4M2,4M3,4M4,4M5,4M6,4M7,4M8,4M9,4M10,4"/><path id="path3956" d="M1,5M2,5M3,5M4,5M6,5M7,5M8,5M9,5"/><path id="path3958" d="M0,6M1,6M2,6M3,6M4,6M5,6M6,6M7,6M8,6M9,6M10,6"/><path id="path3960" d="M0,7M1,7M2,7M3,7M4,7M5,7M6,7M7,7M8,7M9,7M10,7"/><path id="path3962" d="M0,8M1,8M2,8M3,8M4,8M5,8M6,8M7,8M8,8M9,8M10,8"/><path id="path3964" d="M0,9M1,9M2,9M3,9M4,9M5,9M6,9M7,9M8,9M9,9M10,9"/><path id="path3966" d="M1,10M2,10M3,10M4,10M6,10M7,10M8,10M9,10"/></g></g></pattern><pattern id="svgEditorGrid2" width="70" height="70" x="0" y="0" patternUnits="userSpaceOnUse" viewBox="0 0 10 10"><g id="g3991" transform="scale(0.1)" style="fill:none;stroke:#000;stroke-width:.4">troisieme niveau 10 1<g id="g3977" style="stroke-dasharray:2 8"><path id="path3973" d="M-1 0 h102 M-1 10 h102 M-1 20 h102 M-1 30 h102 M-1 40 h102 M-1 50 h102 M-1 60 h102 M-1 70 h102 M-1 80 h102 M-1 90 h102 M-1 100 h102"/><path id="path3975" d="M0-1 v102 M10-1 v102 M20-1 v102 M30-1 v102 M40-1 v102 M50 -1 v102 M60-1 v102 M70-1 v102 M80-1 v102 M90-1 v102 M100-1 v102"/></g>deuxieme niveau 50/3<g id="g3983" style="stroke-dasharray:6 44"><path id="path3979" d="M-3 0 h106 M-3 50 h106 M-3 100 h106"/><path id="path3981" d="M0-3 v106 M50-3 v106 M100-3 v106"/></g>premier niveau 100/5<g id="g3989" style="stroke-dasharray:10 90"><path id="path3985" d="M-5 0 h110 M-5 100 h110"/><path id="path3987" d="M0-5 v119 M100-5 v110"/></g></g></pattern></defs><circle style="fill:#fff;fill-rule:nonzero;stroke:none;stroke-width:.75740743" id="Oval" cx="512" cy="512" r="204.5"/><ellipse id="circle4476" cx="512" cy="512" style="fill:url(#linearGradient-6);fill-rule:nonzero;stroke:none;stroke-width:.73201358" rx="197.135" ry="198.154"/><title id="title3996">Logo maraphone@2x</title><desc id="desc3998">Created with Sketch.</desc><defs id="defs4045"><linearGradient id="linearGradient-1" x1="42.484%" x2="50%" y1="1.663%" y2="100%"><stop id="stop4000" offset="0%" stop-color="#601DA6"/><stop id="stop4002" offset="100%" stop-color="#201684"/></linearGradient><linearGradient id="linearGradient-2" x1="50%" x2="50%" y1="0%" y2="100%"><stop id="stop4005" offset="0%" stop-color="#611AA5"/><stop id="stop4007" offset="100%" stop-color="#4C42B5"/></linearGradient><linearGradient id="linearGradient-3" x1="50%" x2="50%" y1="46.991%" y2="98.412%"><stop id="stop4010" offset="0%" stop-color="#5843BB"/><stop id="stop4012" offset="100%" stop-color="#4C42B5"/></linearGradient><linearGradient id="linearGradient-4" x1="50%" x2="50%" y1="-5.537%" y2="105.287%"><stop id="stop4015" offset="0%" stop-color="#3023AE"/><stop id="stop4017" offset="100%" stop-color="#C86DD7"/></linearGradient><linearGradient id="linearGradient-5" x1="45.018%" x2="45.018%" y1="0%" y2="100%"><stop id="stop4020" offset="0%" stop-color="#3023AE"/><stop id="stop4022" offset="100%" stop-color="#C86DD7"/></linearGradient><linearGradient id="linearGradient-6" x1="270" x2="270" y1="0" y2="540" gradientTransform="matrix(0.73012791,0,0,0.73390404,314.86546,313.8459)" gradientUnits="userSpaceOnUse"><stop id="stop4025" offset="0%" stop-color="#611AA5"/><stop id="stop4027" offset="100%" stop-color="#4C42B5"/></linearGradient><linearGradient id="linearGradient-7" x1="278.951" x2="278.951" y1="-4.536" y2="120.588" gradientTransform="scale(0.60739776,1.6463676)" gradientUnits="userSpaceOnUse"><stop id="stop4030" offset="0%" stop-color="#5B25AA"/><stop id="stop4032" offset="100%" stop-color="#5630AE"/></linearGradient><linearGradient id="linearGradient-8" x1="280.597" x2="280.597" y1="-3.929" y2="116.412" gradientTransform="scale(0.60739776,1.6463676)" gradientUnits="userSpaceOnUse"><stop id="stop4035" offset="0%" stop-color="#5C25AA"/><stop id="stop4037" offset="100%" stop-color="#5530AE"/></linearGradient><linearGradient id="linearGradient-9" x1="153.099" x2="153.099" y1="4.519" y2="139.575" gradientTransform="scale(0.56273143,1.7770466)" gradientUnits="userSpaceOnUse"><stop id="stop4040" offset="0%" stop-color="#5C24A9"/><stop id="stop4042" offset="100%" stop-color="#5336B0"/></linearGradient></defs><g id="m2-copy" transform="matrix(0.73012791,0,0,0.73390405,351.11915,417.74919)" style="fill:none;fill-rule:evenodd;stroke:none;stroke-width:1"><g style="fill:#fff;fill-rule:nonzero" id="Group-2-Copy" transform="matrix(-1,0,0,1,440,0)"><rect style="stroke:#fff" id="Rectangle" width="75" height="239" x="47.962" y="9.316" rx="37.5" transform="rotate(25,85.461662,128.81643)"/><rect style="stroke:url(#linearGradient-7)" id="Rectangle-Copy-5" width="75" height="205" x="131.934" y="-6.968" rx="37.5" transform="matrix(-0.64278761,0.76604444,0.76604444,0.64278761,205.16271,-95.668941)"/></g><rect style="fill:#fff;fill-rule:nonzero;stroke:url(#linearGradient-8)" id="rect4054" width="75" height="205" x="132.934" y="-5.968" rx="37.5" transform="matrix(-0.65605903,0.75470958,0.75470958,0.65605903,209.39552,-95.427038)"/><rect style="fill:#fff;fill-rule:nonzero;stroke:url(#linearGradient-9)" id="rect4056" width="75" height="239" x="48.654" y="8.531" rx="37.5" transform="rotate(25,86.153887,128.03134)"/></g></svg>